PathFileType	4	(X/Y/Z)	D:\TRACE\spotREDO_2-26-24\spot_Both_Motion_3_8-v60.trc
DataRate	CameraRate	NumFrames	NumMarkers	Units	OrigDataRate	OrigDataStartFrame	OrigNumFrames
100.00	100.00	      28	9	mm	100.00	5251	      7000
Frame#	Time	front left toe			Front right toe			aft left toe			aft right toe			Arm			FL body			FR body			AL Body			AR Body			
		X1	Y1	Z1	X2	Y2	Z2	X3	Y3	Z3	X4	Y4	Z4	X5	Y5	Z5	X6	Y6	Z6	X7	Y7	Z7	X8	Y8	Z8	X9	Y9	Z9	

5251	52.500	-65.13648	142.88023	-509.49667	358.07773	10.23498	-537.25140	213.61087	18.07570	35.73666	446.30591	16.29671	-89.84573	95.38039	697.80316	-784.94446	111.68402	570.23090	-529.03125	258.98325	574.97681	-581.35815	406.62839	552.21375	305.19196	546.28510	547.03137	257.19098	
5252	52.510	-62.70375	141.20866	-505.49411	358.40015	10.11122	-537.19513	213.28816	18.16994	35.68392	446.55130	16.75763	-89.34875	91.29275	697.62610	-783.62872	113.72745	570.81000	-529.48260	261.00845	575.26801	-580.97968	404.87866	552.13788	305.64908	544.40228	547.46716	258.64276	
5253	52.520	-60.32019	140.08609	-500.94955	358.51672	10.05190	-537.12842	213.46111	18.33866	35.64521	446.58493	16.91695	-89.12148	87.24129	697.53418	-782.07556	115.48665	571.11841	-529.17242	261.84927	576.17468	-581.13367	403.39944	552.81616	306.34225	543.37946	547.67291	259.48083	
5254	52.530	-57.54467	139.62610	-495.38312	358.70435	10.18770	-537.19055	213.59641	18.31977	35.72875	446.42276	16.61633	-89.29434	84.22897	697.53247	-781.15820	114.95621	571.97833	-529.06488	262.98590	576.63617	-581.22754	403.17627	553.10321	307.27414	542.95618	547.63403	260.02548	
5255	52.540	-54.80381	139.13631	-489.33087	358.84839	10.45908	-537.21881	213.96268	18.67311	36.09664	446.22321	16.23436	-89.62505	81.28771	697.73022	-779.76862	114.34590	572.65704	-528.33051	261.53427	577.44434	-580.03326	403.65939	553.26862	307.58545	543.64398	547.90991	260.36407	
5256	52.550	-52.25092	138.94145	-483.81424	358.10172	11.26542	-537.25073	214.79311	18.96768	36.01629	446.04855	15.79492	-89.92606	80.03546	698.04791	-779.32605	112.72642	573.09760	-527.11017	259.92621	577.82550	-578.88049	404.98929	553.56476	307.84836	544.55859	548.25421	260.01166	
5257	52.560	-48.32372	138.82158	-478.71542	357.33264	12.15598	-537.34161	215.47690	19.49366	35.93261	447.05661	15.63984	-89.97985	79.80846	698.28979	-779.26733	111.01112	573.63660	-525.70953	257.58014	578.64392	-578.12433	406.65552	553.58008	307.91885	545.97321	548.30682	259.50754	
5258	52.570	-44.28560	137.59595	-473.46509	355.87390	13.05446	-537.54315	216.15929	19.36983	36.22250	445.44800	14.55329	-91.55565	80.62630	698.71362	-779.51324	107.73112	574.44556	-523.88593	254.28452	579.48914	-577.05035	408.32407	553.17194	307.63348	547.78510	548.30359	258.82620	
5259	52.580	-40.63928	135.98419	-469.00543	355.00409	13.91148	-537.41937	217.00772	19.36171	36.67246	445.46359	14.00381	-92.06324	81.84028	699.03381	-780.04578	104.19916	575.26550	-521.83929	250.33293	580.80273	-576.48840	410.82666	553.40186	307.90082	549.88605	548.20605	257.73505	
5260	52.590	-36.17148	132.44026	-463.72995	353.37897	14.58919	-537.62378	216.43280	19.47571	37.21077	445.36053	14.03326	-92.21551	83.88450	699.31506	-780.88940	100.74306	575.62738	-519.81317	247.12907	581.16156	-574.93219	412.79877	553.49615	307.94876	551.59381	548.08344	256.69385	
5261	52.600	-33.11552	127.38634	-458.45956	352.78046	14.90196	-537.80908	216.48515	19.51916	37.26790	445.14404	14.11217	-92.41885	86.31828	699.03650	-781.95093	97.62563	575.72754	-517.85406	242.87195	581.52167	-574.04132	414.43640	553.78125	307.96127	553.12921	548.84912	256.19281	
5262	52.610	-29.53630	119.30090	-454.12177	352.36389	15.32784	-537.94800	216.62860	19.51601	37.30040	445.00562	14.29992	-92.40853	89.33414	698.58221	-782.69073	94.59616	575.87408	-516.11176	239.63191	581.70996	-572.92719	415.36740	554.08356	307.88168	553.80463	549.49353	255.50557	
5263	52.620	-25.94802	109.56303	-450.16794	351.84967	15.74074	-538.02612	216.64346	19.51207	37.55784	444.86401	14.50030	-92.47044	91.73654	697.99390	-783.67615	91.62010	576.13135	-514.56342	235.85141	582.16949	-571.75055	415.92688	554.68811	308.45758	553.92773	549.92487	255.17300	
5264	52.630	-22.84752	98.80899	-446.46051	351.46115	15.89194	-538.13666	216.45038	19.56683	37.64304	444.95285	14.82912	-92.47159	94.02240	697.13702	-784.69867	89.24092	576.30292	-513.33990	234.31509	582.39813	-570.92688	415.64542	554.91895	308.93054	553.46161	550.30902	255.19463	
5265	52.640	-20.72475	86.93193	-442.54349	351.44513	16.01651	-537.95514	216.34973	19.54957	37.58170	444.90439	14.80937	-92.51585	96.57569	696.50494	-785.11426	87.73766	576.23566	-512.39587	231.98323	582.67157	-570.62646	414.30768	555.04169	309.47321	552.10724	550.59430	255.71275	
5266	52.650	-18.93962	75.99495	-438.67456	351.62384	15.90844	-537.78302	216.15102	19.34135	37.71327	444.97766	14.70871	-92.57378	97.75103	695.64502	-785.46112	86.17121	576.18433	-512.29626	231.04440	582.48877	-569.97437	412.19186	555.11829	309.98672	550.29504	550.49255	256.41931	
5267	52.660	-18.01521	65.30579	-434.93591	350.78183	14.97128	-538.39276	215.89078	19.05471	37.66249	445.02060	14.51972	-92.52977	98.04183	695.19568	-785.57318	85.34015	575.96417	-512.50024	230.71700	582.16357	-569.80658	409.06607	554.92029	310.50583	547.19330	550.63928	257.63379	
5268	52.670	-18.38285	55.38140	-431.36920	351.76846	14.42023	-538.07135	215.69180	18.89390	37.44638	444.71561	14.71517	-92.45593	97.45750	694.83167	-785.45117	85.31339	575.28082	-512.85425	230.04919	581.72125	-570.10199	405.82901	555.47229	311.33347	543.88666	550.88562	258.90027	
5269	52.680	-18.62079	45.96280	-428.45483	353.39960	14.48895	-537.06573	215.54185	18.74303	37.03651	444.70441	15.05713	-92.27676	96.48756	694.53528	-785.18640	84.95302	574.86133	-513.37567	229.84865	580.91339	-569.95502	402.03256	555.91101	312.26483	540.48230	551.13843	260.12512	
5270	52.690	-19.22572	36.20024	-426.58026	353.92441	14.12911	-536.83777	216.04617	18.60430	36.67977	446.41071	15.99434	-91.08498	94.63474	694.35199	-784.46307	84.11319	574.38531	-514.01672	229.31380	580.12653	-570.07507	397.95358	556.18951	312.52521	536.79749	551.57135	261.39630	
5271	52.700	-20.00017	20.61408	-425.93057	354.17670	14.01426	-536.83405	215.54480	18.77783	36.52184	446.18411	16.51731	-90.76740	92.70142	694.41559	-783.61023	83.04561	574.15692	-514.41760	228.46355	579.55847	-570.09839	394.54895	557.16321	313.56436	533.42450	552.10608	262.54532	
5272	52.710	-22.79805	16.78025	-429.05881	354.01587	13.84136	-536.90289	215.46501	18.42637	36.48585	445.79218	16.72564	-90.52405	91.53442	694.36224	-782.64899	81.90240	574.37671	-514.68298	227.37866	579.14502	-569.81036	390.99377	557.49200	313.93124	530.05328	552.16150	263.48959	
5273	52.720	-27.53331	21.94098	-424.34201	353.28354	14.12514	-537.13940	215.30431	17.38511	36.77544	445.79843	16.88706	-90.37102	90.21132	694.53900	-782.06024	80.23077	576.28058	-513.91370	225.64012	580.31348	-569.27277	388.66974	557.99384	314.88815	527.36426	551.63135	264.44159	
5274	52.730	-32.94057	21.98191	-415.74725	353.19968	14.32075	-537.36548	214.60577	17.37053	36.80703	445.30258	17.08140	-90.65823	89.75027	695.25757	-781.27844	78.21293	578.00800	-513.60614	224.39752	581.27368	-568.29889	386.10251	558.55627	315.54367	524.87518	551.34790	265.03955	
5275	52.740	-28.36449	20.84405	-415.06439	353.15509	14.57595	-537.61926	214.43465	16.31573	36.60124	445.59088	19.32313	-91.18273	90.14947	695.74878	-780.28082	75.85864	579.06958	-512.80817	222.18906	581.86938	-567.43176	383.80426	559.46442	316.32990	522.40625	552.03143	266.03021	
5276	52.750	-28.24357	20.62757	-415.87582	352.60422	14.93206	-537.73883	212.81853	15.10654	37.24435	450.35474	24.89121	-89.39522	90.98410	695.99518	-780.09229	72.94122	581.15979	-511.64197	219.18736	583.11731	-566.60986	382.46234	559.54504	316.86325	520.73230	551.69135	266.35477	
5277	52.760	-28.23395	20.46840	-416.34006	351.88760	15.14699	-537.92029	212.32689	14.08994	37.09503	450.41113	32.85565	-81.35984	91.99779	695.61652	-780.57062	70.02122	583.31061	-510.67462	215.97720	584.75555	-565.88409	381.01736	558.92902	317.26822	519.63873	549.96838	266.27182	
5278	52.770	-28.36809	19.83499	-415.99652	350.96771	15.38699	-538.05560	213.41222	14.35985	36.66834	455.56076	43.38974	-76.30344	93.24194	695.40753	-780.75854	67.13749	584.44202	-509.79688	212.92635	585.59387	-565.20593	379.04636	559.53815	317.94678	517.69171	550.63147	266.68225	
